<svg xmlns="http://www.w3.org/2000/svg" width="34.938" height="34.934" viewBox="0 0 34.938 34.934">
  <path id="Icon_simple-applemusic" data-name="Icon simple-applemusic" d="M34.934,8.915a13.436,13.436,0,0,0-.349-3.188A7.157,7.157,0,0,0,31.411,1.3,7.311,7.311,0,0,0,28.679.239,15.28,15.28,0,0,0,26.4.021c-.058,0-.121-.015-.181-.019H8.718C8.5.017,8.277.027,8.056.04A10.152,10.152,0,0,0,4.863.624,7.272,7.272,0,0,0,.693,4.671,8.182,8.182,0,0,0,.164,6.72,15.444,15.444,0,0,0,.019,8.438c0,.047-.01.09-.015.135V26.366c.015.2.025.412.039.617a9.58,9.58,0,0,0,.723,3.454,7.25,7.25,0,0,0,4.708,4.079,9.568,9.568,0,0,0,1.882.332c.808.077,1.616.087,2.427.087H25.84a18.2,18.2,0,0,0,2.285-.146,7.771,7.771,0,0,0,3.342-1.179A7.346,7.346,0,0,0,34.2,30.4a8.066,8.066,0,0,0,.539-1.927,17.791,17.791,0,0,0,.2-2.97q0-8.3,0-16.585Zm-9.35,5.808v8.315a3.921,3.921,0,0,1-.355,1.756,3.083,3.083,0,0,1-2.021,1.66,6.717,6.717,0,0,1-1.558.252,2.724,2.724,0,0,1-1.317-5.179,6.21,6.21,0,0,1,1.482-.472c.55-.119,1.1-.223,1.651-.349a.9.9,0,0,0,.742-.751,1.316,1.316,0,0,0,.029-.281q0-3.963,0-7.923a1.055,1.055,0,0,0-.038-.269.419.419,0,0,0-.443-.341,5.267,5.267,0,0,0-.691.1q-1.66.328-3.319.664l-3.386.684-2,.4c-.023,0-.047.015-.07.019a.656.656,0,0,0-.568.713c0,.061,0,.125,0,.189q0,5.682,0,11.362a4.463,4.463,0,0,1-.313,1.786,3.1,3.1,0,0,1-2.087,1.795,6.467,6.467,0,0,1-1.565.25,2.679,2.679,0,0,1-2.795-2.248,2.716,2.716,0,0,1,1.68-3.021,8.585,8.585,0,0,1,1.613-.451c.418-.087.837-.169,1.252-.258a1.013,1.013,0,0,0,.873-1.039v-.218q0-6.463,0-12.93a2.316,2.316,0,0,1,.061-.539,1.01,1.01,0,0,1,.795-.754c.371-.1.75-.163,1.127-.24,1.067-.218,2.134-.431,3.2-.646l3.3-.67c.975-.2,1.951-.393,2.926-.587a8.837,8.837,0,0,1,.967-.154.718.718,0,0,1,.806.7,2.991,2.991,0,0,1,.017.325q0,4.171,0,8.344Z" transform="translate(-0.004 -0.002)" fill="#fff"/>
</svg>
