<svg xmlns="http://www.w3.org/2000/svg" width="33.52" height="33.52" viewBox="0 0 33.52 33.52">
  <path id="Icon_awesome-instagram" data-name="Icon awesome-instagram" d="M16.756,11.274a8.594,8.594,0,1,0,8.592,8.594A8.579,8.579,0,0,0,16.756,11.274Zm0,14.181a5.587,5.587,0,1,1,5.586-5.587A5.6,5.6,0,0,1,16.756,25.455ZM27.7,10.922a2,2,0,1,1-2-2A2,2,0,0,1,27.7,10.922Zm5.691,2.034a9.921,9.921,0,0,0-2.707-7.023,9.982,9.982,0,0,0-7.022-2.708c-2.767-.157-11.06-.157-13.827,0a9.967,9.967,0,0,0-7.022,2.7C.851,7.885.245,10.264.11,12.949c-.157,2.767-.157,11.062,0,13.83A9.921,9.921,0,0,0,2.817,33.8,9.994,9.994,0,0,0,9.839,36.51c2.767.157,11.06.157,13.827,0A9.916,9.916,0,0,0,30.687,33.8a9.986,9.986,0,0,0,2.707-7.023C33.551,24.011,33.551,15.724,33.394,12.957ZM29.82,29.748a5.656,5.656,0,0,1-3.186,3.186c-2.206.875-7.44.673-9.878.673s-7.68.194-9.878-.673a5.656,5.656,0,0,1-3.186-3.186c-.875-2.206-.673-7.442-.673-9.88s-.194-7.681.673-9.88A5.656,5.656,0,0,1,6.878,6.8c2.206-.875,7.44-.673,9.878-.673s7.68-.194,9.878.673A5.656,5.656,0,0,1,29.82,9.987c.875,2.206.673,7.442.673,9.88S30.695,27.549,29.82,29.748Z" transform="translate(0.007 -3.108)" fill="#fff"/>
</svg>
