<svg xmlns="http://www.w3.org/2000/svg" width="33.52" height="32.98" viewBox="0 0 33.52 32.98">
  <path id="Icon_awesome-spotify" data-name="Icon awesome-spotify" d="M16.76.563A16.632,16.632,0,0,0,0,17.052a16.632,16.632,0,0,0,16.76,16.49,16.632,16.632,0,0,0,16.76-16.49A16.632,16.632,0,0,0,16.76.563Zm6.805,24.263a1.3,1.3,0,0,1-.723-.239c-4.217-2.5-9.123-2.606-13.969-1.629a4.426,4.426,0,0,1-.8.173A1.043,1.043,0,0,1,7,22.079a1.059,1.059,0,0,1,.919-1.117c5.535-1.2,11.191-1.1,16.016,1.742a1.122,1.122,0,0,1,.656,1.1,1.013,1.013,0,0,1-1.027,1.024Zm1.818-4.362a1.687,1.687,0,0,1-.831-.279A22.217,22.217,0,0,0,8.427,18.229a2.822,2.822,0,0,1-.8.173,1.35,1.35,0,0,1-.264-2.666,23.077,23.077,0,0,1,6.609-.9A23.959,23.959,0,0,1,25.93,17.857a1.382,1.382,0,0,1,.764,1.31,1.3,1.3,0,0,1-1.311,1.3ZM27.478,15.4a1.572,1.572,0,0,1-.872-.259c-4.812-2.826-13.415-3.5-18.983-1.975a3.256,3.256,0,0,1-.872.173,1.547,1.547,0,0,1-1.575-1.569,1.575,1.575,0,0,1,1.176-1.589,28.759,28.759,0,0,1,7.941-1.011c4.933,0,10.1,1.011,13.881,3.178a1.617,1.617,0,0,1-.7,3.052Z" transform="translate(0 -0.563)" fill="#fff"/>
</svg>
