<svg xmlns="http://www.w3.org/2000/svg" width="33" height="32.175" viewBox="0 0 33 32.175">
  <path id="Icon_awesome-github" data-name="Icon awesome-github" d="M11.038,26.689c0,.133-.153.24-.346.24-.22.02-.373-.086-.373-.24,0-.133.153-.24.346-.24C10.865,26.429,11.038,26.536,11.038,26.689Zm-2.069-.3c-.047.133.086.286.286.326a.312.312,0,0,0,.413-.133c.04-.133-.086-.286-.286-.346A.341.341,0,0,0,8.969,26.39Zm2.941-.113c-.193.047-.326.173-.306.326.02.133.193.22.393.173s.326-.173.306-.306S12.1,26.256,11.909,26.276ZM16.287.781A15.954,15.954,0,0,0,0,17.015,16.68,16.68,0,0,0,11.277,32.93c.852.153,1.151-.373,1.151-.805,0-.413-.02-2.688-.02-4.085,0,0-4.657,1-5.635-1.983,0,0-.758-1.936-1.85-2.435,0,0-1.524-1.045.106-1.025A3.512,3.512,0,0,1,7.6,24.314a3.517,3.517,0,0,0,4.85,1.391,3.7,3.7,0,0,1,1.065-2.242c-3.719-.412-7.472-.951-7.472-7.352a5.042,5.042,0,0,1,1.57-3.919,6.286,6.286,0,0,1,.173-4.518c1.391-.432,4.591,1.8,4.591,1.8a15.718,15.718,0,0,1,8.356,0s3.2-2.235,4.591-1.8a6.283,6.283,0,0,1,.173,4.518,5.172,5.172,0,0,1,1.717,3.919c0,6.42-3.919,6.933-7.638,7.352A3.935,3.935,0,0,1,20.7,26.549c0,2.242-.02,5.017-.02,5.562,0,.432.306.958,1.151.805A16.527,16.527,0,0,0,33,17.015C33,7.787,25.515.781,16.287.781ZM6.467,23.728c-.086.067-.067.22.047.346.106.106.259.153.346.067.086-.067.067-.22-.047-.346C6.706,23.688,6.553,23.642,6.467,23.728Zm-.719-.539c-.047.086.02.193.153.259a.2.2,0,0,0,.286-.047c.047-.086-.02-.193-.153-.259C5.9,23.1,5.795,23.123,5.748,23.189ZM7.9,25.558c-.106.086-.067.286.086.413.153.153.346.173.432.067.086-.086.047-.286-.086-.412C8.19,25.471,7.991,25.451,7.9,25.558Zm-.758-.978c-.106.067-.106.24,0,.393s.286.22.373.153a.3.3,0,0,0,0-.413C7.425,24.56,7.252,24.493,7.146,24.58Z" transform="translate(0 -0.781)" fill="#fff"/>
</svg>
