<svg xmlns="http://www.w3.org/2000/svg" width="43.673" height="30.708" viewBox="0 0 43.673 30.708">
  <path id="Icon_awesome-youtube" data-name="Icon awesome-youtube" d="M44.219,11.055a5.488,5.488,0,0,0-3.861-3.886C36.952,6.25,23.295,6.25,23.295,6.25s-13.657,0-17.063.919a5.488,5.488,0,0,0-3.861,3.886c-.913,3.428-.913,10.58-.913,10.58s0,7.152.913,10.58a5.406,5.406,0,0,0,3.861,3.824c3.406.919,17.063.919,17.063.919s13.657,0,17.063-.919a5.406,5.406,0,0,0,3.861-3.824c.913-3.428.913-10.58.913-10.58s0-7.152-.913-10.58ZM18.828,28.128V15.141l11.414,6.494L18.828,28.128Z" transform="translate(-1.458 -6.25)" fill="#fff"/>
</svg>
